<svg xmlns="http://www.w3.org/2000/svg" version="1.1" xmlns:xlink="http://www.w3.org/1999/xlink" xmlns:svgjs="http://svgjs.dev/svgjs" width="100%" height="100%" viewBox="0 0 1000 600"><rect width="1000" height="600" x="0" y="0" fill="transparent"/><g><rect width="333.3333333333333" height="333.3333333333333" y="232.33964337966285" fill="transparent" transform="matrix(0.5949054401597812,0,0,0.5949054401597813,0,62.628966288262006)" x="210.11727905273438"/><path d="M339.41229691972046 439.5800864757805L339.41229691972046 439.5800864757805Q344.49246246012035 435.8780509489997 348.5728081867181 430.527663837302Q352.65315391331586 425.1772767256043 355.46345825481364 425.1772767256043Q358.3007847534412 425.1772767256043 358.3007847534412 433.6352119072274Q358.3007847534412 442.09314708885057 353.517862941469 449.57828461380143Q348.7619632866266 457.0904442958821 340.9795820332481 462.1435876791521L340.9795820332481 462.1435876791521Q325.0365093266741 472.65520680263904 303.2296285229364 472.65520680263904L303.2296285229364 472.65520680263904Q276.77493669287554 472.65520680263904 262.1829718427909 459.4143498090437Q247.59100699270618 446.17349281544836 247.59100699270618 422.63719395540437L247.59100699270618 422.63719395540437Q247.59100699270618 393.6424193551435 261.58848438593554 367.5930598820294L261.58848438593554 367.5930598820294Q266.2633175693886 359.0270360718871 272.1001035094225 351.81212011823413L272.1001035094225 351.81212011823413Q267.64144758300773 346.5698216350556 264.9932761842887 340.84112432354084Q262.37212694269937 335.08540485489635 262.37212694269937 332.1670118848794L262.37212694269937 332.1670118848794Q262.37212694269937 326.92471340170084 266.2633175693886 326.92471340170084L266.2633175693886 326.92471340170084Q268.99255543949704 327.1138685016093 272.5054358663693 330.6267489284816L272.5054358663693 330.6267489284816L278.53137690631166 336.4635348685154Q280.85528241947327 338.7874403816771 283.3953651896732 340.35472549520466L283.3953651896732 340.35472549520466Q302.66216322321094 324.0063204316839 324.9284206981549 324.0063204316839Q347.19467817309896 324.0063204316839 353.81510666989664 336.4635348685154L353.81510666989664 336.4635348685154Q356.16603434018805 341.11134589483873 356.16603434018805 347.9209294915449L356.16603434018805 347.9209294915449Q356.16603434018805 358.24339351512333 347.19467817309896 365.24213221173795Q338.25034416313963 372.2408709083527 323.17198048471886 372.2408709083527Q308.09361680629803 372.2408709083527 291.96138899981554 366.0257747685018L291.96138899981554 366.0257747685018Q278.12604454936485 389.56207362854576 278.12604454936485 415.2601450589727L278.12604454936485 415.2601450589727Q278.12604454936485 450.8483259989014 306.5533538499002 450.8483259989014L306.5533538499002 450.8483259989014Q324.0637116700018 450.8483259989014 339.41229691972046 439.5800864757805ZM301.2840332095918 353.973892688617L301.2840332095918 353.973892688617Q311.20116487622346 357.270595858451 322.8747367562912 357.270595858451Q334.5483086363589 357.270595858451 334.5483086363589 350.83932246156184L334.5483086363589 350.83932246156184Q334.5483086363589 343.2731184652216 325.0365093266741 343.2731184652216L325.0365093266741 343.2731184652216Q311.9848074329873 343.2731184652216 301.2840332095918 353.973892688617ZM406.53533523011 462.5218978789691L406.53533523011 462.5218978789691Q406.53533523011 474.00631465912835 384.1609891266468 474.00631465912835L384.1609891266468 474.00631465912835Q379.2970008432853 474.00631465912835 378.4322918151321 469.03423774724763Q377.56758278697896 464.0891829924967 377.56758278697896 455.52315918235445L377.56758278697896 455.52315918235445Q377.56758278697896 438.7964439190166 386.3227616970297 405.9104786920666Q395.07794060708056 373.02451346511646 404.02227461703984 353.19025013185325L404.02227461703984 353.19025013185325Q383.1881914699745 353.56856033167026 372.8927496035259 361.35094158504876L372.8927496035259 361.35094158504876Q369.78520153360046 363.70186925534017 367.8396062202558 365.53937594016566Q365.8940109069112 367.3768826249911 364.43481442190273 367.3768826249911Q362.97561793689425 367.3768826249911 361.59748792327514 365.1610657403486Q360.24638006678583 362.91822669857635 360.24638006678583 359.8106786286509L360.24638006678583 359.8106786286509Q360.24638006678583 349.10990440525546 369.78520153360046 343.2731184652216L369.78520153360046 343.2731184652216Q383.40436872701275 335.08540485489635 408.48093054345463 332.3561669847879L408.48093054345463 332.3561669847879Q419.5870371237968 331.19421422820704 428.7205262336646 331.19421422820704L428.7205262336646 331.19421422820704L429.1258585906114 331.19421422820704Q430.4769664471007 331.19421422820704 432.90896058878155 332.7614993417347Q435.3409547304623 334.30176229813253 435.3409547304623 337.8146427250048Q435.3409547304623 341.32752315187696 434.0709133453623 345.7051126069024Q432.8008719602624 350.0827020619278 430.6661215470092 352.2174524751809L430.6661215470092 352.2174524751809Q429.5041687904285 361.54009668495723 425.61297816373917 374.5917985786441Q421.72178753705 387.61647831520116 417.4522867105437 402.39759826519435L417.4522867105437 402.39759826519435Q406.53533523011 440.55288413245273 406.53533523011 462.5218978789691ZM502.6531481407603 425.1772767256043L502.6531481407603 425.1772767256043Q505.976873467724 425.1772767256043 505.976873467724 434.1216107355636L505.976873467724 434.1216107355636Q505.976873467724 438.98559901892514 501.86950558399644 445.90327124415046Q497.7891598573987 452.793921312246 491.2768199891202 458.5496407808905Q484.7644801208417 464.2783380924052 476.7929437675547 467.980373619186Q468.79438525713795 471.68240914596674 461.60649146061473 471.68240914596674Q454.4185976640915 471.68240914596674 450.311229780364 468.95317127585827Q446.2308840537662 466.2239334057499 443.9069785406046 461.54910022229683L443.9069785406046 461.54910022229683Q440.5832532136409 454.92867172549916 438.4485028003878 436.36444977733584Q436.3137523871346 417.77320567204276 434.1790019738815 410.3961567756111L434.1790019738815 410.3961567756111Q429.1258585906114 409.4233591189388 425.3157344353116 406.3968775204027Q421.5326324371414 403.37039592186665 421.5326324371414 398.9928064668412Q421.5326324371414 394.61521701181584 425.50488953522006 392.6696216984712Q429.5041687904285 390.7240263851266 434.5573121736985 390.7240263851266Q439.61045555696853 390.7240263851266 443.5016461836578 393.074954055418L443.5016461836578 393.074954055418Q454.0132653071447 381.7796923751673 462.579289117287 363.4856919983019L462.579289117287 363.4856919983019Q466.4704797439763 355.13584544519784 470.0644266422379 346.27257790662793Q473.6583735404995 337.43633252518777 477.5495641671887 328.0866661582816L477.5495641671887 328.0866661582816Q478.52236182386105 325.76276064512 481.7379985223056 325.2763618167839Q484.9536352207502 324.7899629884477 490.19593370392874 324.7899629884477Q495.4652543442371 324.7899629884477 497.6000047574903 328.1947547868008Q499.73475517074337 331.59954658515386 499.73475517074337 339.27383921001325Q499.73475517074337 346.9481318348726 495.65440944414564 356.89228565863397Q491.57406371754786 366.8094173252656 485.1427903206587 376.1320615350419L485.1427903206587 376.1320615350419Q471.7127782271549 395.8041919255264 454.2024204070533 405.72132359215806L454.2024204070533 405.72132359215806Q457.3369906341085 412.12557483191745 459.2825859474531 419.8268896139066Q461.22818126079767 427.5011822387659 462.95759931710404 434.0135221070444Q464.71403953054016 440.55288413245273 466.95687857231246 444.93047358747816Q469.1997176140847 449.3080630425036 472.49642078391867 449.3080630425036Q475.8201461108824 449.3080630425036 480.3868906658163 445.49793888720365Q484.9536352207502 441.71483688903356 489.4393133042947 437.229158805489Q493.8979692307095 432.7705028790743 497.49191612897107 428.9603787237744Q501.1128851843624 425.1772767256043 502.6531481407603 425.1772767256043Z " fill="#209cee" transform="matrix(0.5949054401597812,0,0,0.5949054401597813,0,62.628966288262006)"/><path d="M650.4807327906838 409.2192860107205L650.4807327906838 409.2192860107205Q640.001874932071 410.67677703182255 633.1164863151408 410.67677703182255L633.1164863151408 410.67677703182255Q630.7543456947342 410.67677703182255 630.7543456947342 408.8674778332131L630.7543456947342 408.8674778332131Q630.7543456947342 404.69603801419703 636.458664001461 400.0974025510649Q642.1629823081878 395.4736379323964 655.0039807872072 392.0309436239313L655.0039807872072 392.0309436239313Q660.8088157160789 371.399906928677 668.2219165992702 354.21156454188787L668.2219165992702 354.21156454188787Q650.1289246131764 355.11621414119253 638.544383910969 366.1730425771388L638.544383910969 366.1730425771388Q635.6545310243013 369.06289546380657 633.8452318256918 370.6962905736623Q632.0359326270825 372.30455652798173 630.6789582281253 372.30455652798173Q629.3219838291684 372.30455652798173 628.0403968968201 370.14344915186496Q626.783939120008 367.9823417757482 626.783939120008 364.3637433785294L626.783939120008 364.3637433785294Q626.9598432087616 350.4170620559153 645.6056766166529 341.747503395912Q664.2263808690079 333.0528155803725 691.5669020924386 333.2287196691262L691.5669020924386 333.2287196691262L745.8458780507203 334.13336926843084Q750.7209342247512 334.13336926843084 750.7209342247512 337.9278717544033L750.7209342247512 337.9278717544033Q750.7209342247512 339.033554597998 749.2634432036491 341.82289086252075Q747.8310813380834 344.6373562825798 746.750527650025 347.879017346755L746.750527650025 347.879017346755Q744.3883870296183 354.41259778617774 736.5983488133834 354.41259778617774L736.5983488133834 354.41259778617774L730.8186430400478 354.41259778617774L706.7449120363285 354.21156454188787L692.8233598692507 354.21156454188787Q691.3658688481487 364.5396474672831 684.1286720537112 387.8846329604515L684.1286720537112 387.8846329604515L717.2488990504775 388.41234522671255Q720.1387519371452 388.41234522671255 720.1387519371452 391.85503953517764L720.1387519371452 391.85503953517764Q720.1387519371452 392.935593223236 719.2341023378406 395.64954202115007Q718.3294527385358 398.36349081906417 717.6007072279849 401.25334370573194L717.6007072279849 401.25334370573194Q716.1683453624191 407.2340827233574 711.4691932771419 407.2340827233574L711.4691932771419 407.2340827233574L683.9527679649575 405.97762494654535L681.615756500087 405.97762494654535Q680.5100736564923 405.97762494654535 679.0777117909265 406.1535290352991L679.0777117909265 406.1535290352991Q669.654278464836 440.70611789763115 669.654278464836 460.7843131710881L669.654278464836 460.7843131710881Q669.654278464836 471.46420427399073 648.8473376808281 471.46420427399073L648.8473376808281 471.46420427399073Q644.3240896843046 471.46420427399073 643.5199567071448 466.8404396553223Q642.7158237299851 462.2418041921901 642.7158237299851 454.6276700647089L642.7158237299851 454.6276700647089Q642.7158237299851 438.34397727722444 650.4807327906838 409.2192860107205ZM836.4867420699435 426.0558202200024L836.4867420699435 426.0558202200024Q839.7284031341186 426.0558202200024 839.7284031341186 434.3735707024983L839.7284031341186 434.3735707024983Q839.7284031341186 438.89681869902176 835.9339006481462 445.32988251629956Q832.1393981621736 451.73781717804115 826.0832716779395 457.0903273072606Q820.0271451937052 462.41770828094377 812.5889151549778 465.86040258940886Q805.1758142717865 469.30309689787396 798.1145215661027 469.30309689787396L798.1145215661027 469.30309689787396Q788.5403133067947 469.30309689787396 785.2735230870833 452.46656268859215L785.2735230870833 452.46656268859215Q780.5743710018061 460.256600904827 772.9853660298611 465.23217370100286Q765.3712319023799 470.2077464971787 752.6307500455055 470.2077464971787Q739.8651390330948 470.2077464971787 732.07510081686 462.2418041921901Q724.3101917561613 454.2758618872016 724.486095844915 442.8672252737479L724.486095844915 442.8672252737479Q724.486095844915 412.1091388973883 744.9412284514157 394.393084244338L744.9412284514157 394.393084244338Q753.610787111419 386.97998336114676 761.1244046167552 384.61784274074006Q768.6380221220913 382.25570212033335 776.9557726045873 382.25570212033335Q785.2735230870833 382.25570212033335 790.5255165941577 385.1706841625374L790.5255165941577 385.1706841625374Q793.0635613033181 379.9186906554629 796.3052223674932 379.9186906554629L796.3052223674932 379.9186906554629Q802.6377695626262 379.9186906554629 808.3420878693529 385.42197571789984Q814.0464061760798 390.9503899358729 814.0464061760798 395.8254461099038L814.0464061760798 395.8254461099038Q811.5083614669194 401.80618512752926 806.6333052928886 410.1239356100252L806.6333052928886 410.1239356100252Q805.1758142717865 418.4416860925212 805.1758142717865 433.46892110319357Q805.1758142717865 448.496156113866 808.970316757759 448.496156113866L808.970316757759 448.496156113866Q813.6945979985724 448.496156113866 831.7875899846663 429.67441861722114L831.7875899846663 429.67441861722114Q835.0292510488415 426.0558202200024 836.4867420699435 426.0558202200024ZM751.0727424022585 436.91161541165866L751.0727424022585 436.91161541165866Q751.0727424022585 450.8331675787365 761.4008253276538 450.8331675787365L761.4008253276538 450.8331675787365Q772.4325246080638 450.65726348998277 779.6697214025014 439.07272278777543L779.6697214025014 439.07272278777543Q782.2077661116617 435.1023162130493 783.8411612215175 429.2974812841775L783.8411612215175 429.2974812841775Q783.8411612215175 409.0433819219668 787.4597596187363 394.56898833309174L787.4597596187363 394.56898833309174Q772.7843327855712 397.4588412197595 761.9285375939149 408.69157374445945Q751.0727424022585 419.8991771136232 751.0727424022585 436.91161541165866ZM859.2788861413145 389.14109073726354L859.2788861413145 389.14109073726354Q859.2788861413145 401.25334370573194 854.9315422335447 416.63238689391176L854.9315422335447 416.63238689391176Q855.3084795665884 422.43722182278356 855.3084795665884 427.86511941861176Q855.3084795665884 433.2930170144399 856.0120959216031 437.26342358916605L856.0120959216031 437.26342358916605Q858.7260447195172 444.50062038360363 862.8974845385333 446.1340154934593L862.8974845385333 446.1340154934593Q866.516082935752 446.1340154934593 870.8634268435219 439.90198492047136Q875.2107707512916 433.6448251919473 879.7340187478151 424.97526653194393L879.7340187478151 424.97526653194393Q877.5477822161621 416.63238689391176 877.5477822161621 409.2192860107205L877.5477822161621 409.2192860107205Q877.5477822161621 396.2023834429474 881.5433179464245 390.2216444253219L881.5433179464245 390.2216444253219Q886.4183741204554 382.632639453377 896.369519712807 382.632639453377Q906.3206653051586 382.632639453377 909.58745552487 390.2216444253219L909.58745552487 390.2216444253219Q910.8439133016822 393.1114973119897 910.8439133016822 396.7300957092085L910.8439133016822 396.7300957092085Q910.8439133016822 403.26367614863125 907.5771230819707 410.0485481434165Q904.3354620177955 416.83342013820175 897.098265223358 427.86511941861176L897.098265223358 427.86511941861176Q900.3399262875331 437.4393276779197 906.873506726956 437.4393276779197L906.873506726956 437.4393276779197Q914.8143198764083 437.26342358916605 920.6191548052801 431.8355259933379L920.6191548052801 431.8355259933379Q922.7802621813968 429.67441861722114 924.3131406691076 428.0410235073654Q925.8711483123545 426.4076283975097 927.479414266674 426.4076283975097L927.479414266674 426.4076283975097Q930.0174589758344 426.4076283975097 930.0174589758344 432.3883674151352L930.0174589758344 432.3883674151352Q930.0174589758344 443.5959707842989 923.6095243140928 448.74744766922845Q917.1764604968149 453.92405370969414 907.401218993217 453.92405370969414L907.401218993217 453.92405370969414Q894.5602205141976 453.92405370969414 886.9712155422527 442.6913211849942L886.9712155422527 442.6913211849942Q865.787337425201 470.2077464971787 851.4888479250797 470.2077464971787L851.4888479250797 470.2077464971787Q845.8850462404978 470.2077464971787 840.4571486446696 454.2758618872016Q835.0292510488415 438.34397727722444 832.1393981621736 411.2044892980836L832.1393981621736 411.2044892980836Q829.978290786057 394.0161469112944 834.677442871334 386.60304602810317L834.677442871334 386.60304602810317Q838.6478494460601 380.8233402547676 850.2323901482675 380.8233402547676L850.2323901482675 380.8233402547676Q854.5797340560374 380.8233402547676 856.9167455209079 383.43677243053673Q859.2788861413145 386.0753337618421 859.2788861413145 389.14109073726354ZM943.5872029654048 469.30309689787396L943.5872029654048 469.30309689787396Q925.4942109793109 469.30309689787396 925.4942109793109 435.4541243905567L925.4942109793109 435.4541243905567Q925.4942109793109 417.00932422695536 930.0174589758344 401.98208921628293L930.0174589758344 401.98208921628293Q937.0787516815183 378.8381369674045 945.9493435858116 378.8381369674045L945.9493435858116 378.8381369674045Q951.201337092886 378.8381369674045 954.2670940683075 385.8743005175522L954.2670940683075 385.8743005175522Q956.8051387774678 391.3021981133803 956.6292346887142 396.5541916204548L956.6292346887142 396.5541916204548Q956.6292346887142 403.79138841489237 952.2818907809444 422.06028448973996L952.2818907809444 422.06028448973996Q948.1104509619282 437.99216909971705 948.1104509619282 441.78667158568953Q948.1104509619282 445.58117407166196 950.0202667826826 447.038665092764Q951.9049534479008 448.496156113866 954.5435147792061 448.496156113866Q957.1569469549753 448.496156113866 961.1524826852376 445.0534618054009Q965.1228892599637 441.61076749693586 969.09329583469 437.5398443000647Q973.0888315649523 433.46892110319357 976.4310092512725 430.0262267947285Q979.7731869375926 426.5835324862634 981.054773869941 426.5835324862634L981.054773869941 426.5835324862634Q983.5676894235651 426.5835324862634 983.5676894235651 432.7401755926426L983.5676894235651 432.7401755926426Q983.5676894235651 445.4052699829083 970.8272075666906 457.44213548476796Q958.06159655428 469.4790009866277 943.5872029654048 469.30309689787396ZM951.000303848596 364.1627101342395L951.000303848596 364.1627101342395Q946.1252476745652 356.9255133398019 946.1252476745652 348.607762857306Q946.1252476745652 340.29001237481003 948.7386798503343 334.7615981568369Q951.3772411816398 329.2583130944 953.7142526465101 326.61975176309465Q956.0763932669169 324.00631958732555 959.1421502423383 324.00631958732555L959.1421502423383 324.00631958732555Q964.2182396606592 324.00631958732555 968.3896794796752 331.51993709266173Q972.535990143155 339.033554597998 972.535990143155 344.0845148607825L972.535990143155 344.0845148607825Q972.535990143155 353.5079481868731 965.9270222371235 358.8353291605563Q959.3431834866282 364.1627101342395 951.000303848596 364.1627101342395ZM1046.3654491086327 426.0558202200024L1046.3654491086327 426.0558202200024Q1049.607110172808 426.0558202200024 1049.607110172808 431.5591052824392Q1049.607110172808 437.0875195004123 1046.8177739082848 443.4200666955452Q1044.0033084882261 449.75261389067805 1038.298990181499 455.63283628615864Q1032.6198010303087 461.5130586816391 1023.7492091260152 465.6844985006552Q1014.878617221722 469.8308091641351 1002.8417517198624 469.8308091641351Q990.8048862180026 469.8308091641351 981.7583902249556 462.6941289918425Q972.7118942319088 455.53231966401364 972.7118942319088 442.0630922965882Q972.7118942319088 428.5938649291627 976.9838506730698 417.6375531153614Q981.2306779586946 406.68124130156014 988.1914540422335 398.7404281521078Q995.1522301257725 390.77448584711925 1004.0228220300656 386.3266253172045Q1012.8934139343589 381.90389394282596 1020.8593562393474 381.90389394282596L1020.8593562393474 381.90389394282596Q1034.7809084064252 381.90389394282596 1034.7809084064252 392.935593223236L1034.7809084064252 392.935593223236Q1034.7809084064252 399.2681404183689 1032.1674762306561 403.0626429043414Q1029.5289148993506 406.88227454585 1026.8149661014368 406.88227454585L1026.8149661014368 406.88227454585Q1023.196367704218 406.88227454585 1020.4824189063039 404.3442298366897Q1017.7684701083898 401.80618512752926 1014.5268090442147 401.7056685053843Q1011.2600188245033 401.6302810387756 1008.2696493156905 404.87194210295075Q1005.2792798068778 408.1387323226621 1003.2940765195146 413.2148217409829L1003.2940765195146 413.2148217409829Q999.3236699447885 423.3418714220883 999.3236699447885 436.91161541165866L999.3236699447885 436.91161541165866Q999.4995740335422 443.4200666955452 1005.2792798068778 446.6868569152566L1005.2792798068778 446.6868569152566Q1009.2748155371402 448.8479642913734 1014.7027131329683 448.9484809135183Q1020.1306107287966 449.02386838012706 1025.1061835249725 445.4052699829083Q1030.081756321148 441.78667158568953 1034.228066984628 437.5398443000647Q1038.399506803644 433.2930170144399 1041.5657804012103 429.67441861722114Q1044.7320539987768 426.0558202200024 1046.3654491086327 426.0558202200024ZM1113.6613276346875 453.37121228789687L1113.6613276346875 453.37121228789687Q1099.3628381345661 470.2077464971787 1079.385159483254 470.2077464971787Q1059.3823516764055 470.2077464971787 1049.431206084054 459.9801801939284Q1039.4800604917025 449.75261389067805 1039.6559645804562 434.54947479125195L1039.6559645804562 434.54947479125195Q1039.4800604917025 413.013788496693 1053.2257085700267 397.4588412197595Q1066.996485803887 381.90389394282596 1089.2357884534608 381.90389394282596L1089.2357884534608 381.90389394282596Q1099.3628381345661 381.90389394282596 1105.5194812409452 384.4419386519864L1105.5194812409452 384.4419386519864Q1116.1993723438477 388.78928255975615 1116.1993723438477 392.58378504572863L1116.1993723438477 392.58378504572863Q1116.1993723438477 395.4736379323964 1101.2726539553205 395.5741545545414Q1086.3459355667928 395.64954202115007 1076.2942733522964 405.8771083244004Q1066.267740293336 416.1046746276507 1066.267740293336 431.6596219045842L1066.267740293336 431.6596219045842Q1066.267740293336 439.8014682983264 1071.0674090007578 445.32988251629956Q1075.8419485526438 450.8331675787365 1084.6371529903286 450.8331675787365Q1093.407228272477 450.8331675787365 1099.1869340458124 447.2145691815177L1099.1869340458124 447.2145691815177Q1086.3459355667928 438.54501052151437 1086.3459355667928 422.06028448973996L1086.3459355667928 422.06028448973996Q1086.1700314780392 413.3907258297366 1092.5779661397808 406.2289165019078Q1099.0110299570588 399.09223632961516 1109.0626921715552 398.9917197074702Q1119.0892252305157 398.9163322408615 1123.4365691382854 404.52013392544336Q1127.7839130460552 410.1239356100252 1127.7839130460552 418.89401089217347Q1127.7839130460552 427.68921532985803 1123.6124732270391 437.4393276779197L1123.6124732270391 437.4393276779197L1124.6930269150976 437.4393276779197Q1132.658969220086 437.26342358916605 1138.4638041489577 431.8355259933379L1138.4638041489577 431.8355259933379Q1140.6249115250746 429.67441861722114 1142.1577900127852 428.0410235073654Q1143.690668500496 426.4076283975097 1145.3240636103517 426.4076283975097L1145.3240636103517 426.4076283975097Q1147.8621083195121 426.4076283975097 1147.8621083195121 432.3883674151352L1147.8621083195121 432.3883674151352Q1147.8621083195121 443.4200666955452 1141.3536570356255 448.9484809135183Q1134.8452057517388 454.45176597595525 1126.9546509133593 454.45176597595525Q1119.0892252305157 454.45176597595525 1113.6613276346875 453.37121228789687ZM1112.0279325248316 432.3883674151352L1112.0279325248316 432.3883674151352Q1115.1188186557893 425.87991613124865 1115.1188186557893 419.72327302486946Q1115.1188186557893 413.5666299184903 1111.1232829255268 413.5666299184903L1111.1232829255268 413.5666299184903Q1109.5150169712076 413.5666299184903 1108.409334127613 415.928770538897Q1107.3287804395545 418.2657820037674 1107.3287804395545 420.4520185354205L1107.3287804395545 420.4520185354205Q1107.3287804395545 427.68921532985803 1112.0279325248316 432.3883674151352ZM1162.8893433301846 378.4611996343609L1162.8893433301846 378.4611996343609Q1169.397794614071 378.4611996343609 1175.1775003874068 390.9503899358729L1175.1775003874068 390.9503899358729Q1183.6962841141926 382.0797980315797 1196.2608618823133 382.0797980315797Q1208.825439650434 382.0797980315797 1215.157986845567 387.6082122495528Q1221.4905340407 393.1114973119897 1221.4905340407 403.1631595264863Q1221.4905340407 413.2148217409829 1218.8771018649306 423.51777551084194Q1216.2636696891616 433.82072928070096 1215.082599378958 438.2685898106157Q1213.9015290687548 442.6913211849942 1213.9015290687548 445.58117407166196Q1213.9015290687548 448.496156113866 1215.886732356118 448.496156113866L1215.886732356118 448.496156113866Q1218.600681154032 448.496156113866 1222.5962168842943 445.0534618054009Q1226.5666234590205 441.61076749693586 1230.5370300337468 437.5398443000647Q1234.5325657640092 433.46892110319357 1237.8747434503293 430.0262267947285Q1241.2169211366495 426.5835324862634 1242.4985080689976 426.5835324862634L1242.4985080689976 426.5835324862634Q1245.0114236226218 426.5835324862634 1245.0114236226218 432.7401755926426L1245.0114236226218 432.7401755926426Q1245.0114236226218 445.4052699829083 1232.547362476646 457.16571477386935L1232.547362476646 457.16571477386935Q1211.539388448348 469.4790009866277 1205.7596826750125 469.4790009866277L1205.7596826750125 469.4790009866277Q1205.2068412532153 469.4790009866277 1205.0309371644616 469.30309689787396L1205.0309371644616 469.30309689787396Q1190.5565435755866 469.30309689787396 1190.5565435755866 446.1340154934593L1190.5565435755866 446.1340154934593Q1190.5565435755866 436.18286990110767 1192.466359396341 427.86511941861176Q1194.351046061559 419.5473689361158 1195.2556956608637 415.7277372946071Q1196.1603452601685 411.9332348086346 1196.1603452601685 407.96282823390845L1196.1603452601685 407.96282823390845Q1196.1603452601685 401.4543769500219 1188.6718569103682 401.4543769500219Q1181.1582394050322 401.4543769500219 1174.3733674102468 412.5614636970406Q1167.5884954154617 423.6936795995956 1165.2263547950552 435.63002847931034L1165.2263547950552 435.63002847931034L1165.2263547950552 436.91161541165866Q1165.2263547950552 443.06825851803785 1167.1361706158095 449.5767098019244Q1169.0208572810275 456.0851610858109 1169.0208572810275 458.62320579497134L1169.0208572810275 458.62320579497134Q1169.0208572810275 464.77984890135053 1153.6418140928477 470.73545876343974L1153.6418140928477 470.73545876343974Q1151.304802627977 471.64010836274446 1149.495503429368 471.64010836274446L1149.495503429368 471.64010836274446Q1144.9722554328443 471.64010836274446 1143.2383437008436 466.9409562774673Q1141.5295611243791 462.2418041921901 1141.5295611243791 452.2906585998385L1141.5295611243791 452.2906585998385Q1141.5295611243791 426.5835324862634 1143.5147644117424 415.200025028346L1143.5147644117424 415.200025028346Q1146.2287132096565 398.1875867303105 1155.8280506245007 383.5372890526817L1155.8280506245007 383.5372890526817Q1159.0697116886759 378.4611996343609 1162.8893433301846 378.4611996343609ZM1250.43932121845 461.8648668591465Q1254.0579196156687 452.6424667773459 1261.2951164101064 446.5863402931117Q1268.5323132045442 440.5302138088774 1277.05109693133 440.5302138088774Q1285.5447515025794 440.5302138088774 1285.5447515025794 449.9285179794318Q1285.5447515025794 459.35195130552233 1279.4886250183454 466.7650521887136Q1273.432498534111 474.17815307190483 1267.275855427732 474.00224898315116L1267.275855427732 474.00224898315116Q1256.4200602360756 474.00224898315116 1250.43932121845 461.8648668591465L1250.43932121845 461.8648668591465ZM1332.5865306664236 469.30309689787396L1332.5865306664236 469.30309689787396Q1314.4935386803295 469.30309689787396 1314.4935386803295 435.4541243905567L1314.4935386803295 435.4541243905567Q1314.4935386803295 417.00932422695536 1319.0167866768534 401.98208921628293L1319.0167866768534 401.98208921628293Q1326.078079382537 378.8381369674045 1334.9486712868302 378.8381369674045L1334.9486712868302 378.8381369674045Q1340.2006647939047 378.8381369674045 1343.2664217693264 385.8743005175522L1343.2664217693264 385.8743005175522Q1345.8044664784866 391.3021981133803 1345.628562389733 396.5541916204548L1345.628562389733 396.5541916204548Q1345.628562389733 403.79138841489237 1341.2812184819632 422.06028448973996L1341.2812184819632 422.06028448973996Q1337.109778662947 437.99216909971705 1337.109778662947 441.78667158568953Q1337.109778662947 445.58117407166196 1339.0195944837014 447.038665092764Q1340.9042811489194 448.496156113866 1343.5428424802249 448.496156113866Q1346.156274655994 448.496156113866 1350.1518103862563 445.0534618054009Q1354.1222169609828 441.61076749693586 1358.0926235357088 437.5398443000647Q1362.0881592659712 433.46892110319357 1365.4303369522913 430.0262267947285Q1368.7725146386115 426.5835324862634 1370.0541015709596 426.5835324862634L1370.0541015709596 426.5835324862634Q1372.5670171245838 426.5835324862634 1372.5670171245838 432.7401755926426L1372.5670171245838 432.7401755926426Q1372.5670171245838 445.4052699829083 1359.8265352677095 457.44213548476796Q1347.0609242552987 469.4790009866277 1332.5865306664236 469.30309689787396ZM1339.9996315496146 364.1627101342395L1339.9996315496146 364.1627101342395Q1335.1245753755838 356.9255133398019 1335.1245753755838 348.607762857306Q1335.1245753755838 340.29001237481003 1337.738007551353 334.7615981568369Q1340.3765688826584 329.2583130944 1342.713580347529 326.61975176309465Q1345.0757209679355 324.00631958732555 1348.1414779433571 324.00631958732555L1348.1414779433571 324.00631958732555Q1353.217567361678 324.00631958732555 1357.389007180694 331.51993709266173Q1361.5353178441737 339.033554597998 1361.5353178441737 344.0845148607825L1361.5353178441737 344.0845148607825Q1361.5353178441737 353.5079481868731 1354.9263499381423 358.8353291605563Q1348.3425111876472 364.1627101342395 1339.9996315496146 364.1627101342395ZM1436.6212345864637 453.37121228789687L1436.6212345864637 453.37121228789687Q1422.3227450863424 470.2077464971787 1402.3450664350298 470.2077464971787Q1382.3422586281818 470.2077464971787 1372.3911130358301 459.9801801939284Q1362.4399674434785 449.75261389067805 1362.6158715322322 434.54947479125195L1362.6158715322322 434.54947479125195Q1362.4399674434785 413.013788496693 1376.185615521803 397.4588412197595Q1389.9563927556628 381.90389394282596 1412.1956954052366 381.90389394282596L1412.1956954052366 381.90389394282596Q1422.3227450863424 381.90389394282596 1428.4793881927212 384.4419386519864L1428.4793881927212 384.4419386519864Q1439.159279295624 388.78928255975615 1439.159279295624 392.58378504572863L1439.159279295624 392.58378504572863Q1439.159279295624 395.4736379323964 1424.2325609070963 395.5741545545414Q1409.305842518569 395.64954202115007 1399.2541803040722 405.8771083244004Q1389.2276472451122 416.1046746276507 1389.2276472451122 431.6596219045842L1389.2276472451122 431.6596219045842Q1389.2276472451122 439.8014682983264 1394.027315952534 445.32988251629956Q1398.80185550442 450.8331675787365 1407.5970599421048 450.8331675787365Q1416.3671352242527 450.8331675787365 1422.1468409975882 447.2145691815177L1422.1468409975882 447.2145691815177Q1409.305842518569 438.54501052151437 1409.305842518569 422.06028448973996L1409.305842518569 422.06028448973996Q1409.1299384298154 413.3907258297366 1415.5378730915568 406.2289165019078Q1421.9709369088346 399.09223632961516 1432.0225991233315 398.9917197074702Q1442.0491321822915 398.9163322408615 1446.3964760900612 404.52013392544336Q1450.7438199978315 410.1239356100252 1450.7438199978315 418.89401089217347Q1450.7438199978315 427.68921532985803 1446.5723801788154 437.4393276779197L1446.5723801788154 437.4393276779197L1447.6529338668734 437.4393276779197Q1455.6188761718622 437.26342358916605 1461.4237111007337 431.8355259933379L1461.4237111007337 431.8355259933379Q1463.5848184768506 429.67441861722114 1465.1176969645612 428.0410235073654Q1466.6505754522723 426.4076283975097 1468.2839705621277 426.4076283975097L1468.2839705621277 426.4076283975097Q1470.822015271288 426.4076283975097 1470.822015271288 432.3883674151352L1470.822015271288 432.3883674151352Q1470.822015271288 443.4200666955452 1464.3135639874017 448.9484809135183Q1457.805112703515 454.45176597595525 1449.914557865135 454.45176597595525Q1442.0491321822915 454.45176597595525 1436.6212345864637 453.37121228789687ZM1434.9878394766079 432.3883674151352L1434.9878394766079 432.3883674151352Q1438.0787256075655 425.87991613124865 1438.0787256075655 419.72327302486946Q1438.0787256075655 413.5666299184903 1434.083189877303 413.5666299184903L1434.083189877303 413.5666299184903Q1432.4749239229836 413.5666299184903 1431.3692410793892 415.928770538897Q1430.2886873913308 418.2657820037674 1430.2886873913308 420.4520185354205L1430.2886873913308 420.4520185354205Q1430.2886873913308 427.68921532985803 1434.9878394766079 432.3883674151352Z " fill="#ffffff" transform="matrix(0.5949054401597812,0,0,0.5949054401597813,0,62.628966288262006)"/></g></svg>